<svg width="26" height="27" viewBox="0 0 26 27" fill="none" xmlns="http://www.w3.org/2000/svg">
<path d="M13.55 21.8375L19.85 25.8375C20.6625 26.35 21.6625 25.5875 21.425 24.65L19.6 17.475C19.5506 17.2761 19.5585 17.0674 19.6226 16.8728C19.6868 16.6781 19.8046 16.5056 19.9625 16.375L25.6125 11.6625C26.35 11.05 25.975 9.81253 25.0125 9.75003L17.6375 9.27503C17.4363 9.26332 17.2428 9.19325 17.0808 9.07338C16.9187 8.9535 16.7951 8.78902 16.725 8.60003L13.975 1.67503C13.9022 1.47491 13.7696 1.30204 13.5952 1.17988C13.4207 1.05772 13.2129 0.992188 13 0.992188C12.787 0.992188 12.5793 1.05772 12.4048 1.17988C12.2304 1.30204 12.0978 1.47491 12.025 1.67503L9.27499 8.60003C9.20491 8.78902 9.08128 8.9535 8.91923 9.07338C8.75718 9.19325 8.56372 9.26332 8.36249 9.27503L0.987495 9.75003C0.0249946 9.81253 -0.350005 11.05 0.387495 11.6625L6.0375 16.375C6.19541 16.5056 6.31323 16.6781 6.37736 16.8728C6.4415 17.0674 6.44934 17.2761 6.39999 17.475L4.71249 24.125C4.42499 25.25 5.62499 26.1625 6.58749 25.55L12.45 21.8375C12.6144 21.733 12.8052 21.6775 13 21.6775C13.1948 21.6775 13.3856 21.733 13.55 21.8375Z" fill="#DFB32E"/>
</svg>
