<svg width="436" height="144" viewBox="0 0 436 144" fill="none" xmlns="http://www.w3.org/2000/svg">
<path d="M0 36V0H190V36H0Z" fill="#A2A7AC"/>
<path d="M52 54V144H88V54H52Z" fill="#A2A7AC"/>
<path d="M352 90H436V0H400V54H316V144H352V90Z" fill="#A2A7AC"/>
<path d="M100 54V90H190V54H100Z" fill="#A2A7AC"/>
<path d="M100 144V108H190V144H100Z" fill="#A2A7AC"/>
<path d="M352 0H316V36H352V0Z" fill="#A2A7AC"/>
<path d="M274 108H304V144H274C234.235 144 202 111.764 202 72C202 32.2355 234.235 0 274 0H304V36H274C254.118 36 238 52.1177 238 72C238 91.8822 254.118 108 274 108Z" fill="#A2A7AC"/>
<path d="M400 108H436V144H400V108Z" fill="#A2A7AC"/>
</svg>
