<svg width="74" height="24" viewBox="0 0 74 24" fill="none" xmlns="http://www.w3.org/2000/svg">
<path d="M0.799805 6V0H32.6117V6H0.799805Z" fill="#833FB0"/>
<path d="M9.50623 9V24H15.5337V9H9.50623Z" fill="#833FB0"/>
<path d="M59.7356 15H73.7998V0H67.7723V9H53.7081V24H59.7356V15Z" fill="#833FB0"/>
<path d="M17.5429 9V15H32.6117V9H17.5429Z" fill="#833FB0"/>
<path d="M17.5429 24V18H32.6117V24H17.5429Z" fill="#833FB0"/>
<path d="M59.7356 0H53.7081V6H59.7356V0Z" fill="#833FB0"/>
<path d="M46.676 18H51.6989V24H46.676C40.0181 24 34.6209 18.6274 34.6209 12C34.6209 5.37258 40.0181 0 46.676 0H51.6989V6H46.676C43.347 6 40.6484 8.68629 40.6484 12C40.6484 15.3137 43.347 18 46.676 18Z" fill="#833FB0"/>
<path d="M67.7723 18H73.7998V24H67.7723V18Z" fill="#833FB0"/>
</svg>
