<svg width="396" height="144" viewBox="0 0 396 144" fill="none" xmlns="http://www.w3.org/2000/svg">
<path d="M36 72C36 91.8822 52.1179 108 72 108V144C32.2355 144 0 111.764 0 72C0 32.2355 32.2355 0 72 0H126V36H72C52.1179 36 36 52.1177 36 72Z" fill="#A2A7AC"/>
<path d="M198 72C198 52.1178 181.882 36 162 36V0C201.764 0 234 32.2355 234 72C234 111.765 201.764 144 162 144C122.236 144 90 111.765 90 72L126 72C126 91.8822 142.118 108 162 108C181.882 108 198 91.8822 198 72Z" fill="#A2A7AC"/>
<path d="M321 36C298.531 36 282 18.9776 282 0H246V144H282V61.4842C293.462 68.183 306.867 72 321 72C361.492 72 396 40.6691 396 0H360C360 18.9776 343.469 36 321 36Z" fill="#A2A7AC"/>
<path d="M360 88H396V144H360V88Z" fill="#A2A7AC"/>
</svg>
