<svg width="67" height="24" viewBox="0 0 67 24" fill="none" xmlns="http://www.w3.org/2000/svg">
<path d="M6.6001 12C6.6001 15.3137 9.28641 18 12.6001 18V24C5.97269 24 0.600098 18.6274 0.600098 12C0.600098 5.37258 5.97269 0 12.6001 0H21.6001V6H12.6001C9.28641 6 6.6001 8.68629 6.6001 12Z" fill="#F09219"/>
<path d="M33.6001 12C33.6001 8.68629 30.9138 6 27.6001 6V0C34.2275 0 39.6001 5.37258 39.6001 12C39.6001 18.6274 34.2275 24 27.6001 24C20.9727 24 15.6001 18.6274 15.6001 12L21.6001 12C21.6001 15.3137 24.2864 18 27.6001 18C30.9138 18 33.6001 15.3137 33.6001 12Z" fill="#F09219"/>
<path d="M54.1001 6C50.3553 6 47.6001 3.16294 47.6001 0H41.6001V24H47.6001V10.2474C49.5105 11.3638 51.7446 12 54.1001 12C60.8488 12 66.6001 6.77818 66.6001 0H60.6001C60.6001 3.16294 57.8448 6 54.1001 6Z" fill="#F09219"/>
<path d="M60.6001 14.6667H66.6001V24H60.6001V14.6667Z" fill="#F09219"/>
</svg>
