<svg width="152" height="40" viewBox="0 0 152 40" fill="none" xmlns="http://www.w3.org/2000/svg">
<path d="M80.189 10.3112C79.9763 9.80972 79.6502 9.41725 79.2107 9.1338C78.7782 8.84308 78.2678 8.69772 77.6794 8.69772C77.1264 8.69772 76.6301 8.82854 76.1906 9.09019C75.7511 9.35184 75.4037 9.72614 75.1485 10.2131C74.8933 10.6928 74.7656 11.2524 74.7656 11.892C74.7656 12.5316 74.8933 13.0948 75.1485 13.5818C75.4037 14.0687 75.7511 14.443 76.1906 14.7047C76.6301 14.9663 77.1264 15.0971 77.6794 15.0971C78.1969 15.0971 78.6612 14.9845 79.0724 14.7592C79.4907 14.5266 79.8239 14.1996 80.072 13.778C80.3272 13.3492 80.4726 12.8513 80.508 12.2844H77.3816V11.663H81.2949V12.219C81.2595 12.8877 81.0822 13.4946 80.7632 14.0397C80.4442 14.5775 80.0153 15.0027 79.4765 15.3152C78.9448 15.6277 78.3458 15.784 77.6794 15.784C76.9917 15.784 76.3678 15.6204 75.8078 15.2934C75.2477 14.9591 74.8046 14.4975 74.4785 13.9088C74.1595 13.3129 74 12.6406 74 11.892C74 11.1434 74.1595 10.4747 74.4785 9.88603C74.8046 9.29006 75.2477 8.82854 75.8078 8.50149C76.3678 8.16716 76.9917 8 77.6794 8C78.4734 8 79.1681 8.2035 79.7636 8.61051C80.3591 9.01751 80.7916 9.58441 81.061 10.3112H80.189Z" fill="#0A0A0A"/>
<path fill-rule="evenodd" clip-rule="evenodd" d="M97.2483 15.7076L95.4086 12.5243H94.0368V15.7076H93.2925V8.08721H95.5256C96.355 8.08721 96.9824 8.29072 97.4078 8.69772C97.8403 9.10473 98.0565 9.63892 98.0565 10.3003C98.0565 10.8527 97.9005 11.3251 97.5886 11.7176C97.2837 12.1028 96.83 12.3535 96.2274 12.4698L98.1416 15.7076H97.2483ZM94.0368 11.9029H95.5362C96.1176 11.9029 96.5535 11.7575 96.8442 11.4668C97.142 11.1761 97.2908 10.7873 97.2908 10.3003C97.2908 9.79881 97.149 9.41361 96.8655 9.1447C96.5819 8.86852 96.1353 8.73043 95.5256 8.73043H94.0368V11.9029Z" fill="#0A0A0A"/>
<path fill-rule="evenodd" clip-rule="evenodd" d="M111.635 15.2934C112.195 15.6204 112.819 15.784 113.507 15.784C114.201 15.784 114.829 15.6204 115.389 15.2934C115.949 14.9591 116.389 14.4975 116.708 13.9088C117.027 13.3129 117.186 12.6406 117.186 11.892C117.186 11.1434 117.027 10.4747 116.708 9.88603C116.389 9.29006 115.949 8.82854 115.389 8.50149C114.829 8.16716 114.201 8 113.507 8C112.819 8 112.195 8.16716 111.635 8.50149C111.075 8.82854 110.632 9.29006 110.306 9.88603C109.987 10.4747 109.827 11.1434 109.827 11.892C109.827 12.6406 109.987 13.3129 110.306 13.9088C110.632 14.4975 111.075 14.9591 111.635 15.2934ZM114.996 14.7265C114.556 14.9881 114.06 15.1189 113.507 15.1189C112.954 15.1189 112.458 14.9881 112.018 14.7265C111.578 14.4648 111.231 14.0905 110.976 13.6036C110.721 13.1094 110.593 12.5388 110.593 11.892C110.593 11.2451 110.721 10.6782 110.976 10.1913C111.231 9.70433 111.578 9.33003 112.018 9.06839C112.458 8.80674 112.954 8.67592 113.507 8.67592C114.06 8.67592 114.556 8.80674 114.996 9.06839C115.435 9.33003 115.782 9.70433 116.038 10.1913C116.293 10.6782 116.42 11.2451 116.42 11.892C116.42 12.5388 116.293 13.1094 116.038 13.6036C115.782 14.0905 115.435 14.4648 114.996 14.7265Z" fill="#0A0A0A"/>
<path d="M129.895 8.08721V12.8841C129.895 13.6399 130.068 14.1996 130.416 14.5629C130.77 14.9263 131.252 15.108 131.862 15.108C132.472 15.108 132.947 14.93 133.287 14.5738C133.634 14.2105 133.808 13.6472 133.808 12.8841V8.08721H134.552V12.8732C134.552 13.8398 134.301 14.5666 133.797 15.0535C133.301 15.5405 132.652 15.784 131.851 15.784C131.05 15.784 130.398 15.5405 129.895 15.0535C129.398 14.5666 129.15 13.8398 129.15 12.8732V8.08721H129.895Z" fill="#0A0A0A"/>
<path fill-rule="evenodd" clip-rule="evenodd" d="M150.973 11.8593C151.391 11.4595 151.6 10.9326 151.6 10.2785C151.6 9.61712 151.387 9.08656 150.962 8.68682C150.544 8.28708 149.92 8.08721 149.09 8.08721H146.847V15.7076H147.591V12.4589H149.09C149.927 12.4589 150.554 12.259 150.973 11.8593ZM150.834 10.2785C150.834 11.296 150.253 11.8048 149.09 11.8048H147.591V8.73043H149.09C149.7 8.73043 150.143 8.86125 150.42 9.1229C150.696 9.38454 150.834 9.76974 150.834 10.2785Z" fill="#0A0A0A"/>
<path fill-rule="evenodd" clip-rule="evenodd" d="M104.291 40L105.61 36.1294H113.584L114.903 40H119.148L111.949 19.6578H107.274L100.074 40H104.291ZM109.597 24.3723L112.494 32.87H106.7L109.597 24.3723Z" fill="#0A0A0A"/>
<path fill-rule="evenodd" clip-rule="evenodd" d="M88.1625 31.2985C87.4359 30.3673 86.5085 29.7949 85.3804 29.5815C86.4129 29.2517 87.2351 28.6891 87.847 27.8936C88.478 27.0982 88.7935 26.1087 88.7935 24.9252C88.7935 23.9164 88.5354 23.0142 88.0191 22.2188C87.522 21.4233 86.7762 20.8025 85.7819 20.3562C84.8067 19.91 83.6404 19.6869 82.2828 19.6869H74.0224V40H82.6556C84.0132 40 85.1892 39.7671 86.1835 39.3015C87.1778 38.8359 87.9331 38.1956 88.4493 37.3808C88.9847 36.5465 89.2524 35.5862 89.2524 34.4997C89.2524 33.2968 88.8891 32.2298 88.1625 31.2985ZM81.7091 28.0682H78.0379V22.9754H81.7091C82.6652 22.9754 83.4013 23.1985 83.9176 23.6447C84.4339 24.091 84.692 24.7215 84.692 25.5364C84.692 26.3512 84.4339 26.9818 83.9176 27.428C83.4013 27.8548 82.6652 28.0682 81.7091 28.0682ZM84.3478 35.9839C83.8124 36.4495 83.0572 36.6824 82.082 36.6824H78.0379V31.2112H81.9959C82.9711 31.2112 83.7455 31.4634 84.3192 31.9679C84.8928 32.4529 85.1796 33.1319 85.1796 34.005C85.1796 34.8586 84.9024 35.5183 84.3478 35.9839Z" fill="#0A0A0A"/>
<path d="M151.571 19.6869V40H147.556V26.7878L142.192 40H139.152L133.76 26.7878V40H129.744V19.6869H134.305L140.672 34.7908L147.039 19.6869H151.571Z" fill="#0A0A0A"/>
<g clip-path="url(#clip0_1481_1811)">
<path d="M38.5518 0L31.7668 10.1186L52.4301 40H66L38.5518 0Z" fill="#17A050"/>
<path d="M11.5654 22.6092L17.4252 13.7554L35.0044 25.9294L29.1446 34.625L11.5654 22.6092Z" fill="#833FB0"/>
<path d="M35.2512 25.5119L38.5254 20.7416L31.4296 10.6367L25.7915 18.9464L35.2512 25.5119Z" fill="#F09219"/>
<path fill-rule="evenodd" clip-rule="evenodd" d="M20.5654 29.5249L13.5702 40.0006H0.000250584L11.3139 23.1992L20.5654 29.5249Z" fill="#299CE8"/>
<path d="M38.8599 23.873L46.2617 34.624H31.4582L38.8599 23.873Z" fill="#AD1508"/>
</g>
<defs>
<clipPath id="clip0_1481_1811">
<rect width="66" height="40" fill="white"/>
</clipPath>
</defs>
</svg>
