<svg width="33" height="24" viewBox="0 0 33 24" fill="none" xmlns="http://www.w3.org/2000/svg">
<path fill-rule="evenodd" clip-rule="evenodd" d="M0.200195 24V9H6.2002V24H0.200195Z" fill="#299CE8"/>
<path fill-rule="evenodd" clip-rule="evenodd" d="M0.200195 6V1.90735e-06H6.2002V6H0.200195Z" fill="#299CE8"/>
<path fill-rule="evenodd" clip-rule="evenodd" d="M26.2002 6V1.90735e-06H32.2002V6H26.2002Z" fill="#299CE8"/>
<path fill-rule="evenodd" clip-rule="evenodd" d="M20.2002 6C16.8865 6 14.2002 8.68629 14.2002 12H8.2002C8.20019 5.37258 13.5728 5.79387e-07 20.2002 0V6Z" fill="#299CE8"/>
<path fill-rule="evenodd" clip-rule="evenodd" d="M14.2002 12C14.2002 15.3137 16.8865 18 20.2002 18C23.5139 18 26.2002 15.3137 26.2002 12L32.2002 12C32.2002 18.6274 26.8276 24 20.2002 24C13.5728 24 8.20019 18.6274 8.2002 12H14.2002Z" fill="#299CE8"/>
</svg>
